<svg width="606" height="108" viewBox="0 0 606 108" fill="none" xmlns="http://www.w3.org/2000/svg">
<g clip-path="url(#clip0_1_2)">
<path d="M145.5 84.89H126.45V22.63C134.843 22.23 140.727 22.03 144.1 22.03C150.56 22.03 155.613 23.4133 159.26 26.18C162.9 28.95 164.72 32.89 164.72 38.03C164.72 42.9633 162.113 46.86 156.9 49.72C164.64 52.42 168.51 57.9767 168.51 66.39C168.603 68.9918 168.068 71.5777 166.95 73.9292C165.833 76.2807 164.166 78.3286 162.09 79.9C157.823 83.2333 152.293 84.8967 145.5 84.89ZM137.5 31.48V46.4C139.2 46.52 140.99 46.57 142.86 46.57C150.06 46.57 153.66 43.8633 153.66 38.45C153.66 33.6567 150.387 31.26 143.84 31.26C142.107 31.26 139.993 31.3333 137.5 31.48ZM137.5 55.04V75.62C139.74 75.82 141.56 75.92 142.95 75.92C147.883 75.92 151.463 75.0833 153.69 73.41C155.917 71.7367 157.027 68.9733 157.02 65.12C157.02 61.58 155.987 59 153.92 57.38C151.853 55.76 148.237 54.9533 143.07 54.96C142 54.91 140.14 54.95 137.5 55.04Z" fill="white"/>
<path d="M175.23 53.21C175.23 44.33 177.66 36.8233 182.52 30.69C187.38 24.5567 193.88 21.4867 202.02 21.48C210.98 21.48 217.827 24.26 222.56 29.82C227.293 35.38 229.67 43.1767 229.69 53.21C229.69 63.25 227.217 71.2167 222.27 77.11C217.323 83.0033 210.3 85.9533 201.2 85.96C192.833 85.96 186.417 83.04 181.95 77.2C177.483 71.36 175.243 63.3633 175.23 53.21ZM186.71 53.21C186.697 60.4833 187.93 66.12 190.41 70.12C191.486 72.006 193.057 73.5618 194.954 74.6193C196.85 75.6768 199 76.1958 201.17 76.12C206.697 76.12 210.913 74.1633 213.82 70.25C216.727 66.3367 218.18 60.67 218.18 53.25C218.18 38.65 212.793 31.35 202.02 31.35C199.782 31.2571 197.558 31.752 195.57 32.7853C193.582 33.8187 191.9 35.3545 190.69 37.24C188.023 41.16 186.69 46.4833 186.69 53.21H186.71Z" fill="white"/>
<path d="M250.42 32.41V47H271V56.4H250.42V75.12H278.69V84.94H239.39V22.59H279.15V32.41H250.42Z" fill="white"/>
<path d="M324.16 84.89L306.81 58.36L299.88 67.84V84.84H288.82V22.59H299.88V52.4L321.06 22.59H333.69L314.12 49.81L337.39 84.89H324.16Z" fill="white"/>
<path d="M353.55 32.41V47H374.13V56.4H353.55V75.12H381.79V84.94H342.49V22.59H382.25V32.41H353.55Z" fill="white"/>
<path d="M388.97 81.45L393.06 71.54C397.42 74.6 401.713 76.13 405.94 76.13C412.44 76.13 415.687 73.8633 415.68 69.33C415.646 67.097 414.833 64.9462 413.38 63.25C411.853 61.3233 408.7 59.16 403.92 56.76C399.14 54.36 395.923 52.39 394.27 50.85C392.613 49.3096 391.306 47.4303 390.44 45.34C389.527 43.0996 389.071 40.6992 389.1 38.28C389.047 36.0132 389.495 33.7628 390.411 31.6887C391.327 29.6146 392.689 27.7679 394.4 26.28C397.933 23.1 402.46 21.51 407.98 21.51C415.187 21.51 420.477 22.8433 423.85 25.51L420.49 35.12C416.943 32.4542 412.637 30.993 408.2 30.95C406.034 30.8115 403.901 31.5298 402.26 32.95C401.563 33.6321 401.016 34.4523 400.654 35.3581C400.293 36.2639 400.124 37.2353 400.16 38.21C400.16 41.7833 404.113 45.4967 412.02 49.35C415.264 50.8053 418.292 52.6997 421.02 54.98C422.834 56.658 424.269 58.7035 425.23 60.98C426.222 63.3966 426.719 65.9878 426.69 68.6C426.738 71.0105 426.22 73.3987 425.178 75.5729C424.136 77.7472 422.599 79.647 420.69 81.12C416.69 84.38 411.357 86.01 404.69 86.01C399.117 86.0563 393.653 84.4711 388.97 81.45Z" fill="white"/>
<path d="M461.74 32.41V84.89H450.69V32.41H430.86V22.59H482.45V32.41H461.74Z" fill="white"/>
<path d="M489.81 84.89V22.59H500.81V84.89H489.81Z" fill="white"/>
<path d="M508.09 70.48H517.96C518.9 74.1067 521.933 75.92 527.06 75.92C530.693 75.92 533.253 74.7433 534.74 72.39C536.227 70.0367 536.97 66.4633 536.97 61.67V22.59H548.03V61.33C548.03 69.61 546.27 75.75 542.75 79.75C539.23 83.75 533.59 85.75 525.83 85.75C520.67 85.75 516.5 84.4167 513.32 81.75C510.14 79.0833 508.397 75.3267 508.09 70.48Z" fill="white"/>
<path d="M600.93 85.74L570.69 46.32V84.94H560.06V22.59H565.38L594.81 60.18V22.59H605.44V85.74H600.93Z" fill="white"/>
<path d="M105.9 53.72C105.141 46.4586 103.11 39.3875 99.9 32.83L112.76 20.12L89.83 15.37L90.96 13.8C79.24 4.03 64.96 0.0299964 55.43 0.0299964C45.09 -3.55489e-06 36.69 4.05 29.82 10.76C23.6696 16.9162 17.9463 23.4847 12.69 30.42C9.56001 34.52 8.17001 36.78 7.02001 42.7C6.70033 44.4888 6.54302 46.3029 6.55001 48.12C6.55303 49.9909 6.65651 51.8602 6.86001 53.72C7.62053 60.9811 9.65142 68.052 12.86 74.61L-0.0399933 87.35L22.94 92.12L21.8 93.69C33.52 103.46 47.8 107.46 57.33 107.46C67.67 107.46 76.08 103.46 82.95 96.7C89.1115 90.5427 94.8481 83.9742 100.12 77.04C103.25 72.94 104.64 70.68 105.79 64.76C106.102 62.9706 106.245 61.1561 106.22 59.34C106.213 57.469 106.107 55.5996 105.9 53.74V53.72ZM85.39 84.72C84.338 85.0476 83.2699 85.3213 82.19 85.54C69.75 87.89 51.97 79.1 46.92 75.24L45.41 53.72L44.33 38.2L32.92 50.36C30.22 44.36 27.21 32.99 27.21 30.02C27.21 29.1 27.1 28.02 27.1 26.84C27.0869 25.4618 27.1771 24.0846 27.37 22.72C28.422 22.3923 29.4901 22.1187 30.57 21.9C43.01 19.54 60.8 28.34 65.84 32.2L67.34 53.72L68.43 69.24L79.84 57.12C82.54 63.12 85.55 74.49 85.55 77.46C85.55 78.38 85.67 79.46 85.66 80.64C85.6717 82.0081 85.5814 83.3753 85.39 84.73V84.72Z" fill="black"/>
<path d="M29.69 13.59C29.78 13.41 29.89 13.21 30.01 13C31.4381 11.2324 33.1039 9.67091 34.96 8.36L35.08 8.28C35.37 8.08 35.66 7.88 35.96 7.69L36.14 7.58C36.44 7.39 36.74 7.21 37.05 7.04L37.23 6.93C37.58 6.73 37.94 6.54 38.32 6.35C38.72 6.15 39.13 5.96 39.56 5.77C39.95 5.6 40.36 5.44 40.77 5.28L41.13 5.15L42.06 4.82L42.54 4.67L43.43 4.4L43.96 4.26L44.87 4.03L46.45 3.71L46.94 3.61L48.52 3.38C49.9039 3.21419 51.2962 3.12739 52.69 3.12C54.0959 3.11179 55.5012 3.17855 56.9 3.32C58.7623 3.4952 60.6123 3.78238 62.44 4.18C63.35 4.37 64.25 4.58 65.14 4.82C68.529 5.724 71.8371 6.90807 75.03 8.36C75.78 8.7 76.5 9.04 77.19 9.36C78.19 9.88 79.19 10.41 80.11 10.93C80.72 11.28 81.29 11.63 81.83 11.93C82.63 12.44 83.36 12.93 84 13.42C84.42 13.74 84.81 14.05 85.15 14.35L64.31 10.05L65.77 30.98L65.18 30.57L64.95 30.42L64.52 30.12L64.19 29.91L63.79 29.66L63.39 29.41L63.01 29.19L62.54 28.91L62.16 28.7L61.63 28.4L61.27 28.2L60.67 27.88L60.32 27.69L59.69 27.37L59.36 27.2L58.63 26.84L58.32 26.69L57.52 26.31L57.23 26.18L56.37 25.79L56.11 25.67L55.19 25.28L54.94 25.17L53.94 24.77L53.69 24.69L52.69 24.28L52.51 24.21L51.4 23.81H51.26L50.08 23.41H49.99L48.69 22.93C42.02 20.93 34.45 19.82 27.46 21.47C27.8802 18.7624 28.6291 16.1162 29.69 13.59Z" fill="#00AF9A"/>
<path d="M83.11 93.84C83.02 94.03 82.91 94.23 82.79 94.44C81.3645 96.21 79.6984 97.7718 77.84 99.08L77.69 99.12C77.4 99.32 77.11 99.52 76.81 99.71L76.63 99.82C76.34 100.01 76.03 100.19 75.72 100.36L75.54 100.47C75.19 100.66 74.83 100.86 74.46 101.04C74.06 101.24 73.65 101.43 73.22 101.62C72.83 101.79 72.43 101.95 72.02 102.11L71.65 102.24L70.72 102.57L70.24 102.72L69.36 102.99L68.82 103.13L67.91 103.36L67.36 103.48L66.36 103.68C66.2 103.68 66.04 103.75 65.87 103.77C65.35 103.86 64.87 103.94 64.29 104.01C62.8996 104.18 61.5007 104.27 60.1 104.28C58.7 104.28 57.29 104.22 55.89 104.08C54.0285 103.899 52.1788 103.612 50.35 103.22C49.44 103.03 48.54 102.81 47.65 102.58C44.2401 101.704 40.9087 100.547 37.69 99.12C36.95 98.78 36.23 98.44 35.53 98.12C34.53 97.6 33.53 97.12 32.61 96.55C32.01 96.2 31.43 95.85 30.9 95.55C30.09 95.04 29.36 94.55 28.72 94.05C28.3 93.74 27.91 93.43 27.57 93.13L48.45 97.46L46.99 76.46L47.59 76.87L47.81 77.02C47.95 77.11 48.09 77.21 48.25 77.3L48.57 77.51L48.97 77.76L49.38 78C49.5016 78.0847 49.6286 78.1615 49.76 78.23L50.23 78.51L50.6 78.72L51.13 79.02L51.5 79.22L52.1 79.54L52.44 79.73L53.11 80.07L53.44 80.24L54.17 80.6L54.49 80.75L55.28 81.13L55.57 81.26L56.43 81.65L56.7 81.77L57.62 82.16L57.86 82.27L58.86 82.67L59.07 82.75L60.07 83.16L60.25 83.22L61.37 83.63H61.5L62.69 84.12H62.77L64.03 84.52C70.7 86.52 78.27 87.63 85.27 85.97C84.8686 88.6705 84.1434 91.3129 83.11 93.84Z" fill="#00AF9A"/>
<path d="M25.49 91.69L23.69 91.3L21.84 90.92L20.92 90.73L19.09 90.35L17.29 89.97L12.96 89.12L11.36 88.79L9.85 88.48L8.43 88.18L7.12 87.91L6.5 87.78L5.37 87.55L4.37 87.34L3.52 87.17L2.83 87.02L2.12 86.88H1.89L3.82 84.97L4.71 84.09L6.71 82.09L7.79 81.02L9.41 79.42L10.41 78.42L11.8 77.05L13.95 74.92L13.8 74.62C12.6404 72.2897 11.6381 69.8843 10.8 67.42C10.39 66.22 10.02 65.03 9.69 63.86C9.06031 61.6171 8.55949 59.3401 8.19 57.04C8.01 55.94 7.87 54.87 7.76 53.83C7.55786 51.9335 7.46104 50.0272 7.47 48.12C7.45158 46.7333 7.52507 45.3469 7.69 43.97C7.69 43.58 7.79 43.21 7.86 42.88C8.13762 41.3549 8.52189 39.8513 9.01 38.38C10.0178 35.6809 11.4863 33.1771 13.35 30.98C16.51 26.84 19.96 22.68 23.35 18.87C24.48 17.6 25.61 16.37 26.72 15.2C25.619 17.5166 24.8965 19.9947 24.58 22.54C24.3915 23.9927 24.2879 25.4552 24.27 26.92C24.27 27.92 24.27 29.01 24.34 30.11C24.41 31.21 24.49 32.35 24.62 33.52C24.81 35.28 25.09 37.13 25.44 39.07C26.0261 42.1084 26.8452 45.0972 27.89 48.01C28.04 48.45 28.2 48.88 28.35 49.29L28.58 49.9C28.81 50.5 29.03 51.07 29.25 51.59C29.58 52.41 29.89 53.13 30.15 53.72C30.67 54.88 31.01 55.56 31.01 55.56L32.69 53.71L41.33 44.03L42.04 54.12L45.04 95.76L33.56 93.38L31.85 93.02L29.19 92.47L26.45 91.9L25.49 91.69Z" fill="white"/>
<path d="M105.05 63.47C105.05 63.86 104.94 64.23 104.88 64.56C104.6 66.0854 104.212 67.5891 103.72 69.06C102.712 71.7591 101.244 74.2629 99.38 76.46C96.22 80.6 92.77 84.76 89.38 88.57C88.25 89.84 87.12 91.07 86 92.24C87.1091 89.9265 87.8319 87.447 88.14 84.9C88.332 83.4475 88.4389 81.985 88.46 80.52C88.46 79.52 88.46 78.43 88.39 77.33C88.32 76.23 88.24 75.09 88.11 73.92C87.91 72.15 87.64 70.31 87.28 68.37C86.6984 65.3316 85.8826 62.3426 84.84 59.43C84.69 58.99 84.53 58.56 84.38 58.14C84.3 57.94 84.22 57.73 84.15 57.53C83.92 56.93 83.69 56.37 83.48 55.85C83.15 55.03 82.84 54.31 82.57 53.72C82.06 52.55 81.72 51.88 81.72 51.88L80.07 53.71L71.42 63.41L70.69 54.12L67.69 11.72L79.23 14.12L80.95 14.48L83.61 15.03L86.35 15.6L87.27 15.79L89.12 16.18L90.98 16.56L91.9 16.75L93.69 17.12L95.48 17.49L99.76 18.38L101.36 18.72L102.88 19.03L104.3 19.33L105.61 19.6L106.22 19.73L107.35 19.96L108.35 20.17L109.2 20.34L109.88 20.49L110.59 20.63L110.83 20.68L108.9 22.59L108 23.47L106 25.47L104.92 26.54L103.31 28.12L102.31 29.12L100.92 30.49L98.77 32.62L98.92 32.92C100.084 35.2483 101.086 37.654 101.92 40.12C102.34 41.32 102.71 42.51 103.04 43.68C103.66 45.9252 104.161 48.2018 104.54 50.5C104.71 51.6 104.86 52.67 104.97 53.69C105.173 55.5431 105.277 57.4058 105.28 59.27C105.292 60.6734 105.215 62.0762 105.05 63.47Z" fill="white"/>
</g>
<defs>
<clipPath id="clip0_1_2">
<rect width="605.44" height="107.44" fill="white"/>
</clipPath>
</defs>
</svg>
