<svg width="113" height="108" viewBox="0 0 113 108" fill="none" xmlns="http://www.w3.org/2000/svg">
<path d="M105.94 53.6902C105.181 46.4288 103.15 39.3577 99.94 32.8002L112.8 20.0902L89.87 15.3402L91 13.7702C79.28 4.00017 65 0.000165512 55.47 0.000165512C45.13 -0.0298345 36.73 4.02017 29.86 10.7302C23.7096 16.8863 17.9863 23.4549 12.73 30.3902C9.6 34.4902 8.21 36.7502 7.06 42.6702C6.74032 44.459 6.58301 46.273 6.59 48.0902C6.59302 49.961 6.6965 51.8304 6.9 53.6902C7.66052 60.9513 9.69142 68.0222 12.9 74.5802L0 87.3202L22.98 92.0902L21.84 93.6602C33.56 103.43 47.84 107.43 57.37 107.43C67.71 107.43 76.12 103.43 82.99 96.6702C89.1515 90.5128 94.8881 83.9444 100.16 77.0102C103.29 72.9102 104.68 70.6502 105.83 64.7302C106.142 62.9408 106.285 61.1263 106.26 59.3102C106.253 57.4391 106.146 55.5698 105.94 53.7102V53.6902ZM85.43 84.6902C84.378 85.0178 83.3099 85.2915 82.23 85.5102C69.79 87.8602 52.01 79.0702 46.96 75.2102L45.45 53.6902L44.37 38.1702L32.96 50.3302C30.26 44.3302 27.25 32.9602 27.25 29.9902C27.25 29.0702 27.14 27.9902 27.14 26.8102C27.1269 25.432 27.2171 24.0548 27.41 22.6902C28.462 22.3625 29.5301 22.0888 30.61 21.8702C43.05 19.5102 60.84 28.3102 65.88 32.1702L67.38 53.6902L68.47 69.2102L79.88 57.0902C82.58 63.0902 85.59 74.4602 85.59 77.4302C85.59 78.3502 85.71 79.4302 85.7 80.6102C85.7116 81.9783 85.6214 83.3454 85.43 84.7002V84.6902Z" fill="black"/>
<path d="M29.73 13.5602C29.82 13.3802 29.93 13.1802 30.05 12.9702C31.4781 11.2025 33.1439 9.64107 35 8.33015L35.12 8.25015C35.41 8.05015 35.7 7.85015 36 7.66015L36.18 7.55015C36.48 7.36015 36.78 7.18015 37.09 7.01015L37.27 6.90015C37.62 6.70015 37.98 6.51015 38.36 6.32015C38.76 6.12015 39.17 5.93015 39.6 5.74015C39.99 5.57015 40.4 5.41015 40.81 5.25015L41.17 5.12015L42.1 4.79015L42.58 4.64015L43.47 4.37015L44 4.23015L44.91 4.00015L46.49 3.68015L46.98 3.58015L48.56 3.35015C49.9439 3.18435 51.3362 3.09754 52.73 3.09015C54.1359 3.08194 55.5412 3.14871 56.94 3.29015C58.8023 3.46535 60.6523 3.75254 62.48 4.15015C63.39 4.34015 64.29 4.55015 65.18 4.79015C68.569 5.69415 71.8771 6.87823 75.07 8.33015C75.82 8.67015 76.54 9.01015 77.23 9.33015C78.23 9.85015 79.23 10.3802 80.15 10.9002C80.76 11.2502 81.33 11.6002 81.87 11.9002C82.67 12.4102 83.4 12.9002 84.04 13.3902C84.46 13.7102 84.85 14.0202 85.19 14.3202L64.35 10.0202L65.81 30.9502L65.22 30.5402L64.99 30.3902L64.56 30.0902L64.23 29.8802L63.83 29.6302L63.43 29.3802L63.05 29.1602L62.58 28.8802L62.2 28.6702L61.67 28.3701L61.31 28.1702L60.71 27.8501L60.36 27.6602L59.73 27.3402L59.4 27.1702L58.67 26.8102L58.36 26.6602L57.56 26.2801L57.27 26.1502L56.41 25.7601L56.15 25.6402L55.23 25.2502L54.98 25.1402L53.98 24.7402L53.73 24.6602L52.73 24.2502L52.55 24.1802L51.44 23.7801H51.3L50.12 23.3802H50.03L48.73 22.9002C42.06 20.9002 34.49 19.7901 27.5 21.4401C27.9202 18.7326 28.6691 16.0864 29.73 13.5602Z" fill="#00AF9A"/>
<path d="M83.15 93.8102C83.06 94.0002 82.95 94.2002 82.83 94.4102C81.4045 96.1802 79.7383 97.742 77.88 99.0502L77.73 99.0902C77.44 99.2902 77.15 99.4902 76.85 99.6802L76.67 99.7902C76.38 99.9802 76.07 100.16 75.76 100.33L75.58 100.44C75.23 100.63 74.87 100.83 74.5 101.01C74.1 101.21 73.69 101.4 73.26 101.59C72.87 101.76 72.47 101.92 72.06 102.08L71.69 102.21L70.76 102.54L70.28 102.69L69.4 102.96L68.86 103.1L67.95 103.33L67.4 103.45L66.4 103.65C66.24 103.65 66.08 103.72 65.91 103.74C65.39 103.83 64.91 103.91 64.33 103.98C62.9396 104.15 61.5407 104.24 60.14 104.25C58.74 104.25 57.33 104.19 55.93 104.05C54.0684 103.869 52.2188 103.582 50.39 103.19C49.48 103 48.58 102.78 47.69 102.55C44.28 101.674 40.9486 100.517 37.73 99.0902C36.99 98.7502 36.27 98.4102 35.57 98.0902C34.57 97.5702 33.57 97.0902 32.65 96.5202C32.05 96.1702 31.47 95.8202 30.94 95.5202C30.13 95.0102 29.4 94.5202 28.76 94.0202C28.34 93.7102 27.95 93.4002 27.61 93.1002L48.49 97.4302L47.03 76.4302L47.63 76.8402L47.85 76.9902C47.99 77.0802 48.13 77.1802 48.29 77.2702L48.61 77.4802L49.01 77.7302L49.42 77.9702C49.5416 78.0549 49.6685 78.1317 49.8 78.2002L50.27 78.4802L50.64 78.6902L51.17 78.9902L51.54 79.1902L52.14 79.5102L52.48 79.7002L53.15 80.0402L53.48 80.2102L54.21 80.5702L54.53 80.7202L55.32 81.1002L55.61 81.2302L56.47 81.6202L56.74 81.7402L57.66 82.1302L57.9 82.2402L58.9 82.6402L59.11 82.7202L60.11 83.1302L60.29 83.1902L61.41 83.6002H61.54L62.73 84.0902H62.81L64.07 84.4902C70.74 86.4902 78.31 87.6002 85.31 85.9402C84.9086 88.6407 84.1834 91.2831 83.15 93.8102Z" fill="#00AF9A"/>
<path d="M25.5301 91.6602L23.7301 91.2702L21.8801 90.8902L20.9601 90.7002L19.1301 90.3202L17.3301 89.9402L13.0001 89.0902L11.4001 88.7602L9.89005 88.4502L8.47005 88.1502L7.16005 87.8802L6.54005 87.7502L5.41005 87.5202L4.41005 87.3102L3.56005 87.1402L2.87005 86.9902L2.16005 86.8502H1.93005L3.86005 84.9402L4.75005 84.0602L6.75005 82.0602L7.83005 80.9902L9.45005 79.3902L10.4501 78.3902L11.8401 77.0202L13.9901 74.8902L13.8401 74.5902C12.6804 72.2598 11.6782 69.8544 10.8401 67.3902C10.4301 66.1902 10.0601 65.0002 9.73005 63.8302C9.10036 61.5873 8.59954 59.3102 8.23005 57.0102C8.05005 55.9102 7.91005 54.8402 7.80005 53.8002C7.59791 51.9037 7.5011 49.9974 7.51005 48.0902C7.49163 46.7035 7.56513 45.3171 7.73005 43.9402C7.73005 43.5502 7.83005 43.1802 7.90005 42.8502C8.17767 41.3251 8.56195 39.8214 9.05005 38.3502C10.0579 35.6511 11.5263 33.1473 13.3901 30.9502C16.5501 26.8102 20.0001 22.6502 23.3901 18.8402C24.5201 17.5702 25.6501 16.3402 26.7601 15.1702C25.6591 17.4868 24.9366 19.9649 24.6201 22.5102C24.4315 23.9629 24.328 25.4254 24.3101 26.8902C24.3101 27.8902 24.3101 28.9802 24.3801 30.0802C24.4501 31.1802 24.5301 32.3202 24.6601 33.4902C24.8501 35.2502 25.1301 37.1002 25.4801 39.0402C26.0662 42.0786 26.8853 45.0674 27.9301 47.9802C28.0801 48.4202 28.2401 48.8502 28.3901 49.2602L28.6201 49.8702C28.8501 50.4702 29.0701 51.0402 29.2901 51.5602C29.6201 52.3802 29.9301 53.1002 30.1901 53.6902C30.7101 54.8502 31.0501 55.5302 31.0501 55.5302L32.7301 53.6802L41.3701 44.0002L42.0801 54.0902L45.0801 95.7302L33.6001 93.3502L31.8901 92.9902L29.2301 92.4402L26.4901 91.8702L25.5301 91.6602Z" fill="white"/>
<path d="M105.09 63.4402C105.09 63.8302 104.98 64.2002 104.92 64.5302C104.64 66.0556 104.252 67.5593 103.76 69.0302C102.752 71.7293 101.284 74.2331 99.42 76.4302C96.26 80.5702 92.81 84.7302 89.42 88.5402C88.29 89.8102 87.16 91.0402 86.04 92.2102C87.149 89.8967 87.8719 87.4172 88.18 84.8702C88.372 83.4177 88.4789 81.9552 88.5 80.4902C88.5 79.4902 88.5 78.4002 88.43 77.3002C88.36 76.2002 88.28 75.0602 88.15 73.8902C87.95 72.1202 87.68 70.2802 87.32 68.3402C86.7383 65.3017 85.9226 62.3128 84.88 59.4002C84.73 58.9602 84.57 58.5302 84.42 58.1102C84.34 57.9102 84.26 57.7002 84.19 57.5002C83.96 56.9002 83.73 56.3402 83.52 55.8202C83.19 55.0002 82.88 54.2802 82.61 53.6902C82.1 52.5202 81.76 51.8502 81.76 51.8502L80.11 53.6802L71.46 63.3802L70.73 54.0902L67.73 11.6902L79.27 14.0902L80.99 14.4502L83.65 15.0002L86.39 15.5702L87.31 15.7602L89.16 16.1502L91.02 16.5302L91.94 16.7202L93.73 17.0902L95.52 17.4602L99.8 18.3502L101.4 18.6902L102.92 19.0002L104.34 19.3002L105.65 19.5702L106.26 19.7002L107.39 19.9302L108.39 20.1402L109.24 20.3102L109.92 20.4602L110.63 20.6002L110.87 20.6502L108.94 22.5602L108.04 23.4402L106.04 25.4402L104.96 26.5102L103.35 28.0902L102.35 29.0902L100.96 30.4602L98.81 32.5902L98.96 32.8902C100.124 35.2185 101.126 37.6242 101.96 40.0902C102.38 41.2902 102.75 42.4802 103.08 43.6502C103.7 45.8954 104.201 48.1719 104.58 50.4702C104.75 51.5702 104.9 52.6402 105.01 53.6602C105.213 55.5133 105.317 57.376 105.32 59.2402C105.332 60.6436 105.255 62.0464 105.09 63.4402Z" fill="white"/>
</svg>
