<?xml version="1.0" encoding="UTF-8"?>
<svg width="256" height="256" version="1.1"
     xmlns="http://www.w3.org/2000/svg"
     xmlns:xlink="http://www.w3.org/1999/xlink">
  <defs>
    <linearGradient id="Gradient" x1="0" x2="0" y1="0" y2="1">
      <stop offset="0%" style="stop-color:#26A269;stop-opacity:1" />
      <stop offset="100%" style="stop-color:#00AD9A;stop-opacity:1" />
    </linearGradient>
    <filter id="alpha-to-white">
      <feColorMatrix in="SourceGraphic" type="matrix"
                     values="0 0 0 0 1 0 0 0 0 1 0 0 0 0 1 0 0 0 1 0"/>
    </filter>
    <g id="child-svg"><svg xmlns="http://www.w3.org/2000/svg" id="Layer_1" data-name="Layer 1" viewBox="0 0 207.61 197.82" height="16px" width="16px"><link type="text/css" rel="stylesheet" id="dark-mode-custom-link" /><link type="text/css" rel="stylesheet" id="dark-mode-general-link" /><style lang="en" type="text/css" id="dark-mode-custom-style" /><style lang="en" type="text/css" id="dark-mode-native-style" /><style lang="en" type="text/css" id="dark-mode-native-sheet" /><defs><style>.cls-1{fill:#00af9a;}.cls-2{fill:#fff;}</style></defs><path d="M221.59,115.41A114.65,114.65,0,0,0,210.47,77c.82-.82,23.75-23.45,23.75-23.45L192,44.74l2.09-2.89c-21.58-18-47.84-25.35-65.43-25.35-19,0-34.51,7.45-47.15,19.8A355,355,0,0,0,49.87,72.5c-5.77,7.56-8.33,11.72-10.44,22.63a54.32,54.32,0,0,0-.78,10,97.83,97.83,0,0,0,.58,10.32h0a114.92,114.92,0,0,0,11.13,38.46c-.82.82-23.75,23.46-23.75,23.46l42.22,8.75L66.73,189c21.58,18,47.85,25.35,65.43,25.35,19,0,34.51-7.45,47.16-19.8A356.2,356.2,0,0,0,211,158.32c5.76-7.56,8.32-11.72,10.43-22.62a54.31,54.31,0,0,0,.79-10,97.83,97.83,0,0,0-.58-10.32Zm-37.77,57.1a60.65,60.65,0,0,1-5.89,1.51v0C155,178.34,122.26,162.14,113,155l-2.77-39.63h0l-2-28.57-21,22.38c-5-11-10.51-32-10.51-37.45,0-1.69-.22-3.78-.2-5.86v0A50.47,50.47,0,0,1,77,58.31c.76-.4,5.9-1.5,5.9-1.5v0c22.91-4.35,55.66,11.86,64.95,19l2.76,39.63h0l2,28.58,21-22.38c5,11,10.51,32,10.51,37.45,0,1.69.21,3.77.2,5.85v0A49.84,49.84,0,0,1,183.82,172.51Z" transform="translate(-26.6 -16.5)" /><path class="cls-1" d="M81.18,41.53c.18-.35.37-.71.59-1.1a45.09,45.09,0,0,1,9.13-8.54l.22-.15q.78-.55,1.62-1.08l.32-.21c.55-.34,1.11-.67,1.68-1l.33-.19c.65-.36,1.32-.72,2-1.06l.08,0c.74-.37,1.5-.73,2.28-1.07l0,0c.72-.31,1.47-.61,2.22-.9l.68-.25q.84-.32,1.71-.6L105,25l1.63-.49,1-.27,1.69-.41,2.9-.6.91-.17c1-.16,1.92-.31,2.91-.43a66,66,0,0,1,7.71-.5,77.3,77.3,0,0,1,7.75.36,91.65,91.65,0,0,1,10.2,1.58c1.67.36,3.33.75,5,1.19a116.47,116.47,0,0,1,18.22,6.52c1.37.62,2.69,1.25,4,1.89,1.91,1,3.71,1.93,5.38,2.9,1.11.64,2.16,1.28,3.15,1.91,1.49.94,2.83,1.87,4,2.75.79.59,1.5,1.16,2.13,1.7L145,35l2.69,38.54-1.1-.76-.41-.27-.8-.52-.61-.38c-.24-.16-.47-.31-.73-.46l-.74-.45-.7-.42-.87-.51-.68-.39-1-.55-.67-.37-1.1-.6-.64-.34-1.23-.63-.61-.31-1.35-.66-.57-.28L132.43,65l-.53-.25L130.32,64l-.49-.21-1.7-.73-.44-.19c-.6-.25-1.2-.5-1.82-.74l-.38-.16-1.94-.75-.32-.12-2.06-.75-.24-.08c-.72-.26-1.45-.5-2.19-.75l-.15,0c-.77-.25-1.54-.5-2.33-.74h0C103.93,55,90,53,77.11,56h0A63,63,0,0,1,81.18,41.53Z" transform="translate(-26.6 -16.5)" /><path class="cls-1" d="M179.63,189.29c-.17.35-.37.72-.59,1.1a44.76,44.76,0,0,1-9.12,8.54l-.22.16c-.53.36-1.07.72-1.62,1.07l-.33.21c-.54.34-1.1.67-1.67,1l-.33.19c-.65.37-1.32.72-2,1.06l-.08,0c-.74.36-1.5.72-2.28,1.06l0,0c-.72.32-1.46.62-2.22.91l-.67.25-1.71.6-.88.28c-.54.17-1.08.33-1.63.48l-1,.27c-.55.15-1.11.28-1.68.41l-1,.24-1.89.37-.91.17c-.95.16-1.92.3-2.91.43a66.09,66.09,0,0,1-7.71.49,77.3,77.3,0,0,1-7.75-.36,91.29,91.29,0,0,1-10.2-1.58c-1.68-.35-3.34-.75-5-1.18A117.13,117.13,0,0,1,96,199c-1.37-.63-2.69-1.26-4-1.9-1.91-1-3.71-1.93-5.38-2.89-1.11-.65-2.17-1.29-3.16-1.92-1.48-.94-2.82-1.86-4-2.75-.78-.59-1.49-1.16-2.13-1.7l38.46,8-2.69-38.54h0c.34.25.71.5,1.09.76l.42.27.8.53.6.38.73.46.75.45.7.42.87.5.68.4,1,.55.66.36,1.11.6.64.34,1.23.63.61.31,1.34.66.58.28,1.46.7.53.24,1.59.72.49.22,1.69.73.45.18,1.81.74.39.16,1.93.75.32.12,2.06.75.25.08c.72.26,1.45.51,2.18.75l.16.05,2.32.74h0c12.29,3.75,26.23,5.73,39.1,2.68h0A62,62,0,0,1,179.63,189.29Z" transform="translate(-26.6 -16.5)" /><path class="cls-2" d="M73.54,185.32l-3.42-.71-3.4-.7-1.7-.36-3.37-.7-3.31-.68-7.88-1.64-2.94-.61-2.79-.58-2.61-.54-2.42-.51-1.13-.23-2.08-.43-1.84-.38-1.56-.33-1.26-.26-1.31-.27-.44-.09,3.57-3.52,1.64-1.62,3.74-3.7,2-2,3-2.94,1.9-1.87,2.57-2.54,4-3.91-.28-.56a103.1,103.1,0,0,1-5.61-13.26c-.76-2.2-1.44-4.39-2-6.55a115.63,115.63,0,0,1-2.76-12.55c-.33-2-.59-4-.8-5.91h0a96.39,96.39,0,0,1-.58-10.24,60.79,60.79,0,0,1,.45-7.71c.09-.71.2-1.38.32-2a61.64,61.64,0,0,1,2.12-8.28c1.77-5.11,4.15-8.59,8-13.63,5.81-7.62,12.16-15.28,18.43-22.29,2.09-2.34,4.17-4.61,6.22-6.77A43.9,43.9,0,0,0,72,58a68,68,0,0,0-.58,8.06q0,2.84.12,5.88c.11,2,.28,4.12.52,6.28.36,3.25.87,6.65,1.52,10.22A111.88,111.88,0,0,0,78,104.9c.29.81.57,1.6.86,2.36.14.39.28.76.42,1.13.42,1.1.83,2.14,1.23,3.1.61,1.51,1.18,2.83,1.66,3.92h0c1,2.15,1.57,3.4,1.57,3.4l3-3.41h0l15.93-17.83h0L104,116.11h0l5.47,76.67-21.13-4.39-3.16-.65-4.9-1-5-1.05Z" transform="translate(-26.6 -16.5)" /><path class="cls-2" d="M220,133.37c-.1.72-.21,1.39-.32,2a59.3,59.3,0,0,1-2.13,8.28c-1.77,5.11-4.14,8.59-8,13.63-5.82,7.62-12.17,15.28-18.44,22.3-2.09,2.33-4.17,4.6-6.21,6.77a44.23,44.23,0,0,0,3.93-13.53,65.83,65.83,0,0,0,.58-8.06q0-2.83-.12-5.87c-.11-2-.28-4.12-.52-6.29q-.54-4.86-1.52-10.22a110.18,110.18,0,0,0-4.5-16.45c-.28-.82-.57-1.61-.85-2.37-.15-.38-.29-.76-.43-1.13-.42-1.1-.83-2.14-1.22-3.1-.62-1.51-1.19-2.83-1.67-3.92h0c-1-2.14-1.58-3.39-1.58-3.39l-3,3.38h0l-15.92,17.85h0l-1.27-17.14h0L151.35,38l21.14,4.39,3.15.65,4.9,1,5.05,1,1.7.35,3.41.71,3.41.71,1.69.35,3.37.7,3.31.69,7.88,1.63,2.95.61,2.78.58,2.62.55,2.42.5,1.12.23,2.09.43,1.83.39,1.56.32,1.27.26,1.3.27.44.09L227.18,58l-1.64,1.62-3.75,3.7-2,2-3,2.94c-.65.64-1.28,1.27-1.9,1.87-.91.91-1.78,1.77-2.57,2.54l-3.95,3.91.28.56a106.64,106.64,0,0,1,5.61,13.26c.76,2.2,1.44,4.39,2,6.55a115.63,115.63,0,0,1,2.76,12.55c.33,2,.6,4,.8,5.89h0a97.22,97.22,0,0,1,.58,10.27A60.68,60.68,0,0,1,220,133.37Z" transform="translate(-26.6 -16.5)" /></svg></g>
  </defs>
  <rect
      width="256"
      height="256"
      fill="url(#Gradient)"
      ry="128"
      x="0"
      y="0" />
  <use xlink:href="#child-svg" filter="url(#alpha-to-white)"
       transform="matrix(8,0,0,8,64,64)" />
</svg>
