<svg id="Layer_1" data-name="Layer 1" xmlns="http://www.w3.org/2000/svg" viewBox="0 0 605.44 107.44"><link xmlns="" type="text/css" rel="stylesheet" id="dark-mode-custom-link"/><link xmlns="" type="text/css" rel="stylesheet" id="dark-mode-general-link"/><style xmlns="" lang="en" type="text/css" id="dark-mode-custom-style"/><style xmlns="" lang="en" type="text/css" id="dark-mode-native-style"/><style xmlns="" lang="en" type="text/css" id="dark-mode-native-sheet"/><defs><style>.cls-1{fill:#00af9a;}.cls-2{fill:#fff;}</style></defs><path d="M167.81,112.77H148.76V50.51q12.59-.6,17.65-.6,9.69,0,15.16,4.15c3.64,2.77,5.46,6.71,5.46,11.85q0,7.4-7.82,11.69,11.61,4.05,11.61,16.67a16.22,16.22,0,0,1-6.42,13.51Q178,112.78,167.81,112.77Zm-8-53.41V74.28c1.7.12,3.49.17,5.36.17q10.8,0,10.8-8.12,0-7.19-9.82-7.19Q163.55,59.14,159.81,59.36Zm0,23.56V103.5c2.24.2,4.06.3,5.45.3q7.4,0,10.74-2.51T179.33,93q0-5.31-3.1-7.74t-10.85-2.42C164.31,82.79,162.45,82.83,159.81,82.92Z" transform="translate(-22.31 -27.88)"/><path d="M197.54,81.09q0-13.32,7.29-22.52t19.5-9.21q13.44,0,20.54,8.34T252,81.09q0,15.06-7.42,23.9t-21.07,8.85q-12.55,0-19.25-8.76T197.54,81.09Zm11.48,0Q209,92,212.72,98a11.91,11.91,0,0,0,10.76,6q8.29,0,12.65-5.87t4.36-17q0-21.9-16.16-21.9A12.83,12.83,0,0,0,213,65.12Q209,71,209,81.09Z" transform="translate(-22.31 -27.88)"/><path d="M272.73,60.29V74.88h20.58v9.4H272.73V103H301v9.82h-39.3V50.47h39.76v9.82Z" transform="translate(-22.31 -27.88)"/><path d="M346.47,112.77,329.12,86.24l-6.93,9.48v17H311.13V50.47h11.06V80.28l21.18-29.81H356L336.43,77.69l23.27,35.08Z" transform="translate(-22.31 -27.88)"/><path d="M375.86,60.29V74.88h20.58v9.4H375.86V103H404.1v9.82H364.8V50.47h39.76v9.82Z" transform="translate(-22.31 -27.88)"/><path d="M411.28,109.33l4.09-9.91q6.54,4.59,12.88,4.59,9.75,0,9.74-6.8a9.57,9.57,0,0,0-2.3-6.08q-2.29-2.89-9.46-6.49t-9.65-5.91a15.76,15.76,0,0,1-3.83-5.51,18.13,18.13,0,0,1-1.34-7.06,15.43,15.43,0,0,1,5.3-12q5.3-4.77,13.58-4.77,10.81,0,15.87,4L442.8,63a20.79,20.79,0,0,0-12.29-4.17,8.27,8.27,0,0,0-5.94,2,7,7,0,0,0-2.1,5.26q0,5.36,11.86,11.14a38.79,38.79,0,0,1,9,5.63,17.38,17.38,0,0,1,4.21,6A19.5,19.5,0,0,1,449,96.48,15.43,15.43,0,0,1,443,109q-6,4.89-16,4.89A28.56,28.56,0,0,1,411.28,109.33Z" transform="translate(-22.31 -27.88)"/><path d="M484.05,60.29v52.48H473V60.29H453.17V50.47h51.59v9.82Z" transform="translate(-22.31 -27.88)"/><path d="M512.12,112.77V50.47h11v62.3Z" transform="translate(-22.31 -27.88)"/><path d="M530.4,98.36h9.87q1.41,5.44,9.1,5.44,5.45,0,7.68-3.53t2.23-10.72V50.47h11.06V89.21q0,12.42-5.28,18.42t-16.92,6q-7.74,0-12.51-4T530.4,98.36Z" transform="translate(-22.31 -27.88)"/><path d="M623.24,113.62,593,74.2v38.62H582.37V50.47h5.32l29.43,37.59V50.47h10.63v63.15Z" transform="translate(-22.31 -27.88)"/><path d="M128.21,81.6a62.24,62.24,0,0,0-6-20.89L135.07,48l-22.93-4.75,1.13-1.57c-11.72-9.77-26-13.77-35.53-13.77C67.4,27.88,59,31.93,52.13,38.64A191.33,191.33,0,0,0,35,58.3c-3.13,4.1-4.52,6.36-5.67,12.28A30.15,30.15,0,0,0,28.86,76a52.26,52.26,0,0,0,.31,5.6h0a62.3,62.3,0,0,0,6,20.89l-12.9,12.74L45.25,120l-1.14,1.57c11.72,9.77,26,13.77,35.53,13.77,10.34,0,18.75-4,25.62-10.76a192.51,192.51,0,0,0,17.17-19.66c3.13-4.1,4.52-6.36,5.67-12.28a29.21,29.21,0,0,0,.43-5.42,52.44,52.44,0,0,0-.32-5.6Zm-20.51,31a32.35,32.35,0,0,1-3.2.82h0c-12.44,2.35-30.22-6.44-35.27-10.3L67.72,81.6h0L66.64,66.08,55.23,78.24c-2.7-6-5.71-17.37-5.71-20.34,0-.92-.11-2-.11-3.18h0a27.56,27.56,0,0,1,.27-4.12,32.35,32.35,0,0,1,3.2-.82h0c12.44-2.36,30.23,6.44,35.27,10.3l1.5,21.52h0l1.09,15.52L102.15,85c2.7,6,5.71,17.37,5.71,20.34,0,.92.12,2,.11,3.18h0A27.56,27.56,0,0,1,107.7,112.61Z" transform="translate(-22.31 -27.88)"/><path class="cls-1" d="M52,41.47c.09-.18.2-.38.32-.59a24.63,24.63,0,0,1,4.95-4.64l.12-.08c.29-.2.58-.4.88-.59l.18-.11c.3-.19.6-.37.91-.54l.18-.11c.35-.2.71-.39,1.09-.58l0,0c.4-.2.81-.39,1.24-.58h0c.39-.17.8-.33,1.21-.49l.36-.13.93-.33.48-.15.89-.27.53-.14.91-.23,1.58-.32.49-.1,1.58-.23A36.69,36.69,0,0,1,75,31a39.55,39.55,0,0,1,4.21.2,46.59,46.59,0,0,1,5.54.86c.91.19,1.81.4,2.7.64a63.31,63.31,0,0,1,9.89,3.54c.75.34,1.47.68,2.16,1,1,.52,2,1.05,2.92,1.57.61.35,1.18.7,1.72,1,.8.51,1.53,1,2.17,1.49.42.32.81.63,1.15.93L86.62,37.93l1.46,20.93-.59-.41-.23-.15L86.83,58l-.33-.21-.4-.25-.4-.25-.38-.22-.47-.28-.38-.21-.53-.3-.36-.2-.6-.32-.35-.19L82,55.25l-.33-.17-.73-.36-.31-.15-.8-.38-.29-.13-.86-.39-.26-.12-.92-.39-.25-.11-1-.4L76,52.57l-1-.41-.18-.07-1.11-.4-.14,0-1.18-.4-.09,0L71,50.81h0c-6.67-2-14.24-3.11-21.23-1.46h0A33.7,33.7,0,0,1,52,41.47Z" transform="translate(-22.31 -27.88)"/><path class="cls-1" d="M105.42,121.72c-.09.19-.2.39-.32.6a24.36,24.36,0,0,1-4.95,4.64L100,127c-.29.2-.58.4-.88.59l-.18.11c-.29.19-.6.37-.91.54l-.18.11c-.35.19-.71.39-1.08.57l0,0c-.4.2-.81.39-1.24.58h0c-.39.17-.79.33-1.2.49l-.37.13-.93.33-.48.15-.88.27-.54.14-.91.23-.55.12-1,.2c-.16,0-.32.07-.49.09-.52.09-1,.17-1.58.24a36.69,36.69,0,0,1-4.19.27c-1.4,0-2.81-.06-4.21-.2a49.08,49.08,0,0,1-5.54-.86c-.91-.19-1.81-.41-2.7-.64A63.68,63.68,0,0,1,60,127c-.74-.34-1.46-.68-2.16-1-1-.52-2-1-2.92-1.57-.6-.35-1.18-.7-1.71-1-.81-.51-1.54-1-2.18-1.5-.42-.31-.81-.62-1.15-.92l20.88,4.33L69.3,104.34h0l.6.41.22.15c.14.09.28.19.44.28l.32.21.4.25.41.24a3.48,3.48,0,0,0,.38.23l.47.28.37.21.53.3.37.2.6.32.34.19.67.34.33.17.73.36.32.15.79.38.29.13.86.39.27.12.92.39.24.11,1,.4.21.08,1,.41.18.06,1.12.41.13,0L85,112l.08,0,1.26.4h0c6.67,2,14.24,3.11,21.24,1.45h0A34,34,0,0,1,105.42,121.72Z" transform="translate(-22.31 -27.88)"/><path class="cls-2" d="M47.8,119.57,46,119.18l-1.85-.38-.92-.19-1.83-.38-1.8-.38L35.27,117l-1.6-.33-1.51-.31-1.42-.3-1.31-.27-.62-.13-1.13-.23-1-.21-.85-.17-.69-.15-.71-.14-.23,0,1.93-1.91.89-.88,2-2,1.08-1.07,1.62-1.6,1-1,1.39-1.37,2.15-2.13-.15-.3a58.3,58.3,0,0,1-3-7.2c-.41-1.2-.78-2.39-1.11-3.56a61.06,61.06,0,0,1-1.5-6.82c-.18-1.1-.32-2.17-.43-3.21h0A51.59,51.59,0,0,1,29.78,76,31.39,31.39,0,0,1,30,71.85c0-.39.1-.76.17-1.09a33.14,33.14,0,0,1,1.15-4.5,24.91,24.91,0,0,1,4.34-7.4c3.16-4.14,6.61-8.3,10-12.11,1.13-1.27,2.26-2.5,3.37-3.67a24,24,0,0,0-2.14,7.34,37.61,37.61,0,0,0-.31,4.38c0,1,0,2.09.07,3.19s.15,2.24.28,3.41c.19,1.76.47,3.61.82,5.55a60.32,60.32,0,0,0,2.45,8.94c.15.44.31.87.46,1.28l.23.61c.23.6.45,1.17.67,1.69.33.82.64,1.54.9,2.13h0c.52,1.16.86,1.84.86,1.84L55,81.59h0l8.64-9.68h0L64.35,82h0l3,41.64-11.48-2.38-1.71-.36-2.66-.55-2.74-.57Z" transform="translate(-22.31 -27.88)"/><path class="cls-2" d="M127.36,91.35c0,.39-.11.76-.17,1.09a33,33,0,0,1-1.16,4.5,24.91,24.91,0,0,1-4.34,7.4c-3.16,4.14-6.61,8.3-10,12.11-1.13,1.27-2.26,2.5-3.38,3.67a23.51,23.51,0,0,0,2.14-7.34,37.55,37.55,0,0,0,.32-4.38c0-1,0-2.09-.07-3.19s-.15-2.24-.28-3.41c-.2-1.77-.47-3.61-.83-5.55a60,60,0,0,0-2.44-8.94c-.15-.44-.31-.87-.46-1.29-.08-.2-.16-.41-.23-.61-.23-.6-.46-1.16-.67-1.68-.33-.82-.64-1.54-.91-2.13h0c-.51-1.17-.85-1.84-.85-1.84l-1.65,1.83h0l-8.65,9.7h0L93,82h0l-3-42.4L101.54,42l1.72.36,2.66.55,2.74.57.92.19,1.85.39,1.86.38.92.19L116,45l1.79.37,4.28.89,1.6.34,1.52.31,1.42.3,1.31.27.61.13,1.13.23,1,.21.85.17.68.15.71.14.24.05-1.93,1.91-.9.88-2,2-1.08,1.07L125.62,56l-1,1-1.39,1.37-2.15,2.13.15.3a56.72,56.72,0,0,1,3,7.2c.42,1.2.79,2.39,1.12,3.56a65.89,65.89,0,0,1,1.5,6.82c.17,1.1.32,2.17.43,3.19h0a52,52,0,0,1,.31,5.58A33.35,33.35,0,0,1,127.36,91.35Z" transform="translate(-22.31 -27.88)"/></svg>